<svg xmlns="http://www.w3.org/2000/svg" height="24" viewBox="0 -960 960 960" width="24"><path d="M450.001-440v-383.076h59.998V-440h-59.998ZM480-140.001q-70.154 0-131.999-26.77-61.846-26.769-108.154-73.076-46.307-46.308-73.076-108.154-26.77-61.845-26.77-131.999 0-75.769 31.847-143.115 31.846-67.346 88.768-116.269l41.769 41.769Q254-658 227-601q-27 57-27 121 0 116 82 198t198 82q117 0 198.5-82T760-480q0-64-26.5-121t-75.885-96.615l41.769-41.769q57.307 48.923 88.961 116.269Q819.999-555.769 819.999-480q0 70.154-26.77 131.999-26.769 61.846-72.768 108.154-46 46.307-107.846 73.076-61.846 26.77-132.615 26.77Z"/></svg>